# xmcd CD database file
#
# Track frame offsets:
#	150
#	12675
#	26400
#	38730
#	60705
#	75555
#	89160
#	101145
#	115425
#	125820
#
# Disc length: 1873 seconds
#
# Revision: 1
# Processed by: cddbd v1.5PL3 Copyright (c) Steve Scherf et al.
# Submitted via: CDex 1.51
#
DISCID=8a074f0a
DTITLE=Dwight Yoakam - Guitars Cadillacs, Etc., Etc.
DYEAR=1986
DGENRE=Country
TTITLE0=Honky Tonk Man
TTITLE1=It Wont Hurt
TTITLE2=Ill Be Gone
TTITLE3=South Of Cincinatti
TTITLE4=Bury Me
TTITLE5=Guitars Cadillacs
TTITLE6=Twenty Years
TTITLE7=Ring Of Fire
TTITLE8=Miners Prayer
TTITLE9=Heartaches By The Number
EXTD=YEAR: 1986
EXTT0=
EXTT1=
EXTT2=
EXTT3=
EXTT4=
EXTT5=
EXTT6=
EXTT7=
EXTT8=
EXTT9=
PLAYORDER=
